<svg xmlns="http://www.w3.org/2000/svg" viewBox="0 0 512 512">
  <rect width="512" height="512" fill="rgb(20, 20, 20)"/>
  
  <path d="M256 460c-77.32 0-140-62.68-140-140 0-66.45 46.37-122.06 108.5-136.52V160c0-38.66 31.34-70 70-70h2c38.66 0 70 31.34 70 70v23.48C428.63 197.94 475 253.55 475 320c0 77.32-62.68 140-140 140z" 
        fill="#9354e0"/>
  
  <path d="M296.5 160v-70c0-38.66-31.34-70-70-70h-2c-38.66 0-70 31.34-70 70v70" 
        fill="#7b2eda" 
        stroke="#6921c2" 
        stroke-width="20"/>
  
  <path d="M154.5 160c0-38.66 31.34-70 70-70h2c38.66 0 70 31.34 70 70" 
        fill="none" 
        stroke="#833cdb" 
        stroke-width="40" 
        stroke-linecap="round"/>
  
  <circle cx="206" cy="300" r="20" fill="#333333"/>
  <circle cx="306" cy="300" r="20" fill="#333333"/>
  
  <circle cx="214" cy="292" r="6" fill="#FFFFFF"/>
  <circle cx="314" cy="292" r="6" fill="#FFFFFF"/>
  
  <path d="M256 330 L246 350 Q256 360 266 350 Z" fill="#ffab18"/>
  
  <circle cx="206" cy="340" r="15" fill="#ffa503" opacity="0.6"/>
  <circle cx="306" cy="340" r="15" fill="#ffa503" opacity="0.6"/>
  
  <line x1="186" y1="330" x2="146" y2="320" stroke="#6921c2" stroke-width="2"/>
  <line x1="186" y1="340" x2="146" y2="340" stroke="#6921c2" stroke-width="2"/>
  <line x1="186" y1="350" x2="146" y2="360" stroke="#6921c2" stroke-width="2"/>
  
  <line x1="326" y1="330" x2="366" y2="320" stroke="#6921c2" stroke-width="2"/>
  <line x1="326" y1="340" x2="366" y2="340" stroke="#6921c2" stroke-width="2"/>
  <line x1="326" y1="350" x2="366" y2="360" stroke="#6921c2" stroke-width="2"/>
</svg>