<?xml version="1.0" encoding="UTF-8" standalone="no"?>
<svg 
  version="1.1" 
  xmlns="http://www.w3.org/2000/svg" 
  xmlns:xlink="http://www.w3.org/1999/xlink" 
  xmlns:svg="http://www.w3.org/2000/svg"
  xmlns:rdf="http://www.w3.org/1999/02/22-rdf-syntax-ns#"
  xmlns:cc="http://creativecommons.org/ns#"
  xmlns:dc="http://purl.org/dc/elements/1.1/"
  viewBox="0 0 768 768"
  width="768"
  height="768"
>
<style>svg {background-color: white; }</style>"
<metadata id="metadata1">
Created by https://svgstud.io and licensed under CC-BY-SA 4.0 license. Please attribute https://svgstud.io
</metadata>
<metadata id="prompt">
hare face close up, minimalist
</metadata>
<metadata id="version">
7
</metadata>
<metadata id="metadata2">
<rdf:RDF>
<cc:Work
    rdf:about="">
    <cc:license
    rdf:resource="http://creativecommons.org/licenses/by-sa/4.0/" />
    <dc:creator>
        <cc:Agent>
            <dc:title>https://svgstud.io</dc:title>
        </cc:Agent>
    </dc:creator>
</cc:Work>
<cc:License
    rdf:about="http://creativecommons.org/licenses/by-sa/4.0/">
    <cc:permits
    rdf:resource="http://creativecommons.org/ns#Reproduction" />
    <cc:permits
    rdf:resource="http://creativecommons.org/ns#Distribution" />
    <cc:requires
    rdf:resource="http://creativecommons.org/ns#Notice" />
    <cc:requires
    rdf:resource="http://creativecommons.org/ns#Attribution" />
    <cc:permits
    rdf:resource="http://creativecommons.org/ns#DerivativeWorks" />
    <cc:requires
    rdf:resource="http://creativecommons.org/ns#ShareAlike" />
</cc:License>
</rdf:RDF>
</metadata>
<metadata id="uid">
0040778e79a394cf044b5f5c58087fee7325bd604c8a6e3a32cccc12b268a515
</metadata>
<path stroke="none" fill="black" fill-rule="evenodd" d="M386.52,714.00C385.80,714.00 384.94,713.29 384.61,712.42C384.27,711.55 384.01,708.51 384.01,705.67C384.02,702.83 384.67,698.09 385.45,695.14C386.23,692.20 388.03,688.03 389.45,685.89C390.87,683.75 392.46,682.00 392.98,682.00C393.51,682.00 395.69,679.64 397.84,676.75C399.99,673.86 404.74,668.46 408.40,664.75C412.06,661.04 415.65,658.00 416.38,658.00C417.40,658.00 417.53,659.10 416.94,662.75C416.52,665.36 415.49,669.51 414.64,671.96C413.78,674.41 413.27,676.61 413.50,676.83C413.73,677.06 416.88,674.40 420.51,670.91C424.14,667.42 428.62,662.08 430.47,659.04C432.31,655.99 434.77,650.68 435.93,647.23C437.09,643.78 438.31,638.16 438.64,634.73C439.25,628.50 439.25,628.50 434.38,633.10C431.69,635.62 428.00,638.72 426.16,639.98C422.82,642.26 422.82,642.26 423.55,636.38C424.27,630.50 424.27,630.50 422.10,632.43C420.91,633.49 417.98,637.32 415.59,640.93C413.20,644.54 410.06,648.59 408.62,649.92C406.22,652.15 406.00,652.19 406.04,650.42C406.07,649.37 406.46,646.59 406.91,644.25C407.36,641.91 407.45,640.02 407.12,640.04C406.78,640.07 403.74,643.81 400.36,648.37C396.07,654.16 392.45,657.80 388.36,660.45C385.14,662.54 380.93,665.32 379.00,666.64C375.50,669.04 375.50,669.04 375.19,666.55C375.00,665.06 376.74,660.44 379.56,654.99C382.14,650.00 383.92,645.60 383.53,645.21C383.13,644.82 380.44,647.04 377.54,650.15C374.65,653.25 371.31,657.80 370.12,660.26C368.93,662.71 367.28,668.24 366.46,672.55C365.64,676.85 364.74,680.59 364.46,680.87C364.19,681.14 363.50,680.90 362.93,680.33C362.36,679.76 360.63,676.19 359.10,672.40C357.51,668.47 355.70,665.50 354.90,665.50C354.07,665.50 353.39,666.72 353.23,668.50C353.07,670.15 352.73,672.51 352.46,673.75C352.18,674.99 351.58,676.00 351.12,676.00C350.65,676.00 349.13,674.86 347.74,673.47C346.35,672.08 342.89,666.92 340.05,662.00C337.21,657.08 334.41,652.76 333.83,652.40C333.11,651.95 333.00,653.44 333.48,657.12C333.87,660.08 334.87,665.33 335.72,668.79C336.57,672.24 336.97,675.36 336.62,675.72C336.26,676.07 334.37,674.82 332.42,672.93C330.47,671.04 327.37,666.35 325.53,662.50C323.69,658.65 321.90,654.64 321.56,653.58C321.15,652.33 320.59,652.01 319.95,652.65C319.41,653.19 318.31,656.75 317.50,660.56C316.70,664.38 316.03,669.41 316.02,671.75C316.01,674.09 315.75,676.00 315.43,676.00C315.12,676.00 313.89,675.50 312.68,674.88C311.48,674.26 309.00,672.35 307.17,670.63C305.34,668.91 302.32,664.79 300.46,661.47C298.60,658.16 296.16,651.63 295.04,646.97C293.93,642.31 293.00,637.15 292.98,635.50C292.94,632.65 292.87,632.59 291.47,634.44C290.66,635.51 289.99,637.98 289.99,639.94C289.98,641.90 289.70,644.51 289.37,645.75C289.04,646.99 288.37,648.00 287.90,648.00C287.42,648.00 285.44,644.85 283.50,641.00C281.56,637.15 279.57,634.00 279.07,634.00C278.57,634.00 277.86,635.35 277.50,637.00C277.14,638.65 276.40,640.00 275.86,640.00C275.33,640.00 273.91,637.86 272.73,635.25C270.92,631.27 270.58,628.76 270.65,619.78C270.74,609.80 270.62,609.13 268.96,610.02C267.98,610.55 266.19,612.58 264.98,614.53C263.77,616.49 262.27,617.91 261.64,617.69C260.93,617.44 260.58,615.09 260.71,611.44C260.86,607.28 261.79,603.84 263.93,599.49C265.58,596.13 269.14,590.48 271.83,586.94C274.52,583.40 279.82,577.80 283.61,574.49C287.40,571.18 292.52,566.86 295.00,564.88C297.48,562.90 302.20,559.55 305.50,557.43C310.01,554.52 311.03,553.47 309.61,553.18C308.57,552.97 304.52,554.42 300.61,556.40C296.70,558.39 292.81,560.01 291.97,560.00C291.13,560.00 289.44,559.30 288.22,558.44C286.78,557.43 286.00,555.85 286.00,553.94C286.00,552.04 285.49,551.00 284.55,551.00C283.75,551.00 281.72,549.01 280.05,546.57C278.37,544.13 277.00,541.09 277.00,539.81C277.00,538.53 276.12,536.93 275.04,536.26C273.97,535.59 272.39,532.70 271.54,529.84C270.70,526.98 270.00,522.98 270.00,520.95C270.00,517.40 270.17,517.22 274.25,516.42C278.50,515.58 278.50,515.58 273.75,515.24C269.00,514.89 269.00,514.89 269.01,510.20C269.02,507.61 269.30,503.81 269.64,501.75C270.23,498.21 270.46,498.00 273.88,498.05C275.87,498.07 283.57,498.92 291.00,499.93C298.43,500.94 304.69,501.60 304.92,501.39C305.15,501.17 305.08,500.74 304.76,500.43C304.45,500.12 301.79,499.23 298.85,498.47C295.91,497.70 288.83,496.37 283.12,495.52C277.41,494.66 272.35,493.72 271.87,493.42C271.39,493.12 271.26,491.67 271.60,490.19C271.93,488.71 272.92,485.02 273.79,482.00C274.67,478.98 275.77,475.98 276.24,475.33C276.81,474.57 278.04,474.45 279.80,474.98C281.29,475.42 289.02,478.35 297.00,481.48C304.98,484.61 312.40,487.39 313.50,487.66C315.50,488.15 315.50,488.15 313.50,486.49C312.40,485.58 309.02,483.59 306.00,482.06C302.98,480.53 295.44,477.34 289.25,474.98C282.89,472.56 278.00,470.13 278.00,469.39C278.00,468.68 280.09,463.01 282.65,456.80C285.20,450.58 288.13,442.80 289.15,439.50C290.17,436.20 292.55,426.98 294.44,419.00C296.33,411.02 298.34,399.55 298.91,393.50C299.47,387.45 300.02,378.45 300.12,373.50C300.30,364.50 300.30,364.50 297.26,362.72C295.59,361.74 293.65,359.56 292.95,357.87C291.74,354.96 291.84,354.67 294.84,352.33C296.58,350.97 298.00,349.19 298.00,348.39C298.00,347.58 298.83,345.70 299.84,344.21C300.86,342.72 302.98,339.53 304.57,337.13C306.15,334.72 310.01,330.52 313.15,327.79C316.29,325.06 319.09,322.20 319.39,321.43C319.68,320.66 318.60,312.17 316.98,302.56C315.36,292.96 313.13,280.94 312.02,275.85C310.91,270.76 308.72,263.88 307.15,260.55C305.59,257.22 300.38,248.20 295.57,240.50C290.77,232.80 283.52,219.75 279.47,211.50C275.43,203.25 270.55,192.22 268.64,187.00C266.73,181.78 263.56,171.29 261.60,163.71C259.64,156.12 256.71,143.30 255.08,135.21C253.45,127.12 251.21,114.20 250.10,106.50C249.00,98.80 247.63,87.33 247.05,81.00C246.48,74.67 246.01,65.43 246.00,60.46C246.00,55.49 246.69,48.76 247.54,45.50C248.39,42.24 250.25,38.05 251.68,36.18C253.10,34.31 256.12,31.94 258.38,30.91C260.65,29.89 264.57,29.03 267.09,29.02C270.26,29.01 273.66,29.98 278.09,32.17C282.86,34.52 287.19,38.05 295.00,45.93C300.77,51.76 309.37,61.47 314.10,67.51C318.82,73.56 327.07,84.80 332.41,92.50C338.08,100.66 345.23,112.72 349.57,121.42C353.76,129.83 358.96,142.34 361.49,150.09C363.96,157.64 367.54,171.63 369.44,181.16C371.34,190.70 373.43,204.12 374.08,211.00C374.73,217.88 375.01,229.12 374.71,236.00C374.40,242.88 373.35,258.02 372.37,269.66C370.94,286.71 370.83,291.34 371.83,293.52C372.87,295.81 373.47,296.12 375.78,295.54C377.28,295.17 382.86,294.62 388.20,294.32C396.17,293.87 398.22,293.42 399.70,291.78C401.34,289.97 401.55,286.59 402.09,254.15C402.60,223.22 402.97,216.84 404.93,206.00C406.17,199.12 408.73,187.49 410.62,180.15C412.51,172.81 416.11,161.11 418.62,154.15C421.14,147.19 426.58,134.75 430.71,126.50C434.85,118.25 440.73,107.22 443.78,102.00C446.82,96.78 452.37,88.21 456.10,82.96C459.84,77.71 467.80,67.81 473.79,60.96C479.78,54.11 486.98,46.37 489.78,43.77C492.59,41.16 497.04,37.66 499.67,35.99C502.31,34.32 506.16,32.49 508.23,31.94C510.81,31.24 513.23,31.25 515.89,31.97C518.29,32.62 521.14,34.52 523.30,36.91C525.85,39.73 527.15,42.42 528.03,46.65C528.86,50.64 529.07,58.08 528.70,70.00C528.39,79.62 527.21,93.80 526.08,101.50C524.95,109.20 522.65,122.56 520.98,131.18C519.31,139.80 516.16,153.38 513.98,161.34C511.79,169.31 508.60,179.81 506.89,184.66C505.17,189.52 501.19,198.68 498.04,205.00C494.89,211.32 490.15,219.87 487.50,223.99C484.86,228.12 479.46,235.54 475.51,240.49C471.55,245.45 465.49,252.61 462.04,256.40C458.58,260.20 454.01,266.01 451.87,269.32C449.74,272.62 448.21,275.54 448.47,275.80C448.73,276.07 452.21,273.04 456.20,269.07C460.19,265.11 463.59,262.28 463.76,262.79C463.93,263.29 462.43,268.16 460.43,273.60C458.42,279.05 455.93,286.20 454.88,289.50C453.83,292.80 452.31,299.55 451.49,304.50C450.68,309.45 450.01,314.74 450.00,316.26C450.00,318.19 451.57,320.73 455.25,324.76C458.14,327.92 462.11,332.75 464.08,335.50C466.05,338.25 468.15,341.85 468.75,343.50C469.35,345.15 470.11,347.77 470.45,349.31C470.88,351.26 471.99,352.45 474.04,353.16C475.86,353.80 477.00,354.90 477.00,356.02C477.00,357.02 476.72,358.56 476.38,359.46C476.04,360.35 474.47,361.74 472.90,362.55C470.04,364.03 470.04,364.03 470.43,381.27C470.80,397.75 471.01,399.26 475.27,416.00C478.45,428.50 481.28,436.93 485.20,445.50C488.21,452.10 491.49,459.63 492.47,462.24C493.92,466.08 494.03,467.26 493.01,468.49C492.32,469.32 491.40,470.00 490.97,470.00C490.54,470.00 483.50,472.96 475.34,476.57C467.18,480.19 457.24,485.17 453.25,487.64C449.26,490.12 446.00,492.55 446.00,493.04C446.00,493.53 446.79,493.60 447.75,493.20C448.71,492.79 456.25,489.05 464.50,484.88C472.75,480.70 482.58,476.07 486.35,474.57C490.11,473.08 493.77,472.08 494.48,472.36C495.20,472.63 496.57,474.93 497.54,477.47C498.64,480.33 498.95,482.45 498.37,483.03C497.86,483.54 491.83,486.49 484.97,489.58C478.11,492.68 469.80,496.32 466.50,497.69C463.20,499.05 459.84,500.80 459.04,501.58C457.76,502.82 457.83,503.00 459.59,503.00C460.70,503.00 465.41,501.16 470.05,498.91C474.70,496.65 482.71,493.05 487.87,490.91C493.02,488.76 498.27,487.00 499.55,487.00C501.61,487.00 502.04,487.80 503.46,494.25C504.34,498.24 505.15,503.98 505.28,507.00C505.50,512.50 505.50,512.50 500.50,512.46C497.75,512.44 488.45,512.04 479.84,511.58C471.22,511.12 462.92,511.05 461.39,511.44C459.21,511.98 458.92,512.34 460.05,513.05C460.85,513.56 465.77,514.01 471.00,514.06C476.23,514.11 485.82,514.48 492.32,514.87C500.90,515.40 504.40,515.99 505.11,517.05C505.65,517.85 505.87,520.64 505.60,523.25C505.32,525.86 504.43,529.46 503.63,531.25C502.82,533.04 501.83,535.62 501.43,537.00C501.04,538.38 498.94,542.31 496.77,545.75C494.36,549.57 492.13,552.00 491.05,552.00C490.08,552.00 483.42,549.52 476.26,546.50C469.09,543.47 461.15,540.71 458.61,540.36C455.55,539.94 454.00,540.10 454.00,540.83C454.00,541.43 455.91,542.42 458.25,543.03C460.59,543.64 466.70,545.69 471.84,547.59C476.97,549.49 482.93,551.94 485.09,553.04C487.24,554.14 489.00,555.53 489.00,556.14C489.00,556.74 487.20,558.88 485.00,560.89C482.80,562.90 481.00,565.04 481.00,565.64C481.00,566.24 482.91,567.99 485.25,569.52C487.59,571.05 492.07,574.52 495.22,577.22C498.37,579.93 503.02,584.92 505.57,588.31C508.12,591.70 511.30,596.64 512.64,599.29C514.09,602.13 515.33,606.74 515.69,610.55C516.19,615.93 516.04,617.00 514.77,617.00C513.93,617.00 511.58,614.97 509.55,612.50C507.52,610.02 504.99,607.53 503.92,606.96C502.47,606.18 501.88,606.25 501.61,607.21C501.41,607.92 500.00,612.33 498.47,617.00C496.94,621.67 494.34,628.20 492.70,631.50C491.06,634.80 488.60,638.96 487.24,640.75C485.88,642.54 482.93,645.35 480.68,647.00C478.44,648.65 475.76,650.00 474.74,650.00C473.27,650.00 473.01,649.51 473.52,647.75C473.88,646.51 475.42,642.78 476.94,639.45C478.46,636.13 481.78,630.58 484.33,627.13C486.87,623.68 489.39,619.25 489.93,617.28C490.59,614.90 490.57,612.11 489.88,608.90C489.32,606.25 487.95,602.94 486.85,601.54C485.75,600.14 484.50,599.00 484.07,599.00C483.63,599.00 483.04,601.63 482.75,604.84C482.46,608.05 481.48,612.10 480.58,613.84C479.68,615.58 478.61,617.00 478.20,617.00C477.79,617.00 476.59,615.40 475.54,613.44C474.49,611.49 472.58,608.76 471.31,607.39C470.03,606.01 468.54,605.16 468.00,605.50C467.45,605.84 467.00,608.52 467.00,611.45C467.00,614.38 465.85,620.54 464.44,625.14C463.04,629.74 461.62,634.57 461.30,635.87C460.72,638.25 460.72,638.25 465.36,635.53C470.00,632.81 470.00,632.81 470.00,635.44C470.00,636.88 468.82,640.41 467.37,643.28C465.93,646.15 461.54,651.68 457.62,655.57C453.70,659.46 448.67,664.75 446.44,667.32C444.21,669.89 441.63,672.00 440.69,672.00C439.42,672.00 439.00,671.12 439.00,668.50C439.00,666.58 438.60,665.00 438.12,665.00C437.64,665.00 435.41,667.36 433.18,670.25C430.94,673.14 425.62,678.42 421.35,682.00C417.08,685.58 409.23,692.42 403.90,697.22C398.58,702.01 392.78,707.75 391.03,709.97C389.27,712.19 387.24,714.00 386.52,714.00zM369.60,592.96C372.09,592.98 375.49,592.05 378.26,590.58C382.81,588.16 382.81,588.16 388.99,590.65C393.82,592.60 396.08,593.00 399.33,592.45C401.63,592.07 405.75,590.92 408.50,589.90C411.26,588.88 415.76,586.05 418.50,583.62C421.25,581.20 423.15,578.85 422.72,578.41C422.29,577.97 420.26,578.10 418.22,578.71C416.17,579.32 411.49,580.97 407.82,582.37C403.52,584.01 397.68,585.22 391.45,585.76C383.91,586.41 379.16,586.21 370.01,584.84C363.55,583.88 355.86,582.18 352.94,581.07C350.01,579.96 347.40,579.27 347.13,579.53C346.86,579.80 347.96,581.41 349.57,583.10C351.18,584.80 353.80,587.12 355.39,588.26C356.97,589.40 359.90,590.91 361.89,591.62C363.87,592.33 367.35,592.93 369.60,592.96zM309.75,573.83C315.55,569.92 317.53,568.04 317.21,566.75C316.97,565.79 316.12,565.00 315.34,565.00C314.55,565.00 311.73,567.17 309.08,569.82C306.43,572.47 303.72,575.66 303.05,576.90C302.13,578.63 303.72,577.90 309.75,573.83zM329.13,578.00C329.47,578.00 330.26,577.40 330.87,576.66C331.48,575.92 331.69,575.02 331.32,574.66C330.96,574.30 329.95,574.00 329.07,574.00C328.19,574.00 325.68,573.09 323.49,571.97C319.50,569.94 319.50,569.94 324.00,573.97C326.48,576.18 328.78,578.00 329.13,578.00zM446.76,576.57C447.01,576.32 446.31,574.85 445.21,573.31C444.10,571.76 442.03,569.41 440.60,568.08C439.18,566.75 437.74,565.93 437.40,566.26C437.07,566.60 438.94,569.16 441.55,571.95C444.16,574.74 446.51,576.82 446.76,576.57zM362.41,574.58C365.23,574.28 368.92,573.00 371.08,571.57C373.15,570.20 375.14,568.13 375.51,566.96C375.88,565.80 375.89,564.56 375.53,564.20C375.17,563.84 372.55,564.76 369.69,566.23C366.84,567.71 362.27,569.86 359.53,571.02C355.64,572.66 354.88,573.33 356.03,574.11C356.84,574.65 359.71,574.86 362.41,574.58zM463.77,572.00C464.10,572.00 463.05,570.62 461.44,568.93C459.82,567.25 456.17,564.32 453.33,562.43C450.48,560.54 447.33,558.70 446.33,558.33C444.65,557.71 444.66,557.84 446.48,559.91C447.56,561.15 451.76,564.37 455.81,567.08C459.86,569.79 463.44,572.00 463.77,572.00zM410.21,565.76C414.44,565.61 418.40,565.00 419.00,564.40C419.79,563.61 419.76,562.57 418.89,560.65C418.22,559.19 417.92,557.75 418.21,557.45C418.51,557.16 420.50,556.67 422.63,556.37C424.76,556.08 427.74,555.37 429.25,554.80C430.76,554.22 432.00,553.43 432.00,553.02C432.00,552.62 429.55,551.23 426.55,549.93C423.55,548.64 421.24,547.43 421.42,547.25C421.60,547.07 425.50,545.59 430.07,543.97C434.65,542.35 439.01,540.41 439.77,539.66C440.93,538.50 440.09,538.19 434.32,537.62C430.57,537.25 425.93,536.66 424.00,536.31C420.54,535.68 420.56,535.66 426.36,534.33C429.59,533.60 435.10,531.62 438.61,529.95C442.13,528.27 445.00,526.25 445.00,525.45C445.00,524.34 443.56,524.00 438.92,524.00C434.76,524.00 432.96,523.63 433.22,522.84C433.43,522.21 437.57,519.97 442.42,517.87C447.27,515.77 451.85,513.54 452.62,512.90C453.38,512.27 454.00,510.88 454.00,509.81C454.00,508.74 450.99,504.01 447.32,499.30C443.64,494.59 438.19,488.82 435.21,486.48C432.23,484.14 427.17,478.73 423.97,474.45C420.76,470.18 417.01,464.59 415.61,462.03C414.22,459.48 412.78,455.50 412.41,453.19C411.92,450.11 412.08,449.00 413.02,449.00C413.98,449.00 414.15,447.30 413.70,441.95C413.23,436.32 413.40,434.78 414.55,434.34C415.51,433.98 416.00,432.31 416.00,429.46C416.00,427.08 414.70,420.04 413.12,413.82C410.56,403.78 410.23,400.71 410.17,386.65C410.11,371.53 410.19,370.87 411.88,372.40C412.86,373.28 413.91,374.00 414.23,374.00C414.54,374.00 414.96,368.26 415.15,361.25C415.47,349.88 415.78,348.02 418.00,344.05C419.38,341.60 422.45,338.11 424.83,336.30C427.44,334.31 430.31,333.00 432.08,333.00C433.68,333.00 435.00,333.43 435.00,333.95C435.00,334.48 432.96,336.31 430.47,338.02C427.98,339.74 424.83,342.90 423.47,345.05C422.11,347.20 421.00,349.64 421.00,350.48C421.00,351.32 421.57,352.00 422.28,352.00C422.98,352.00 424.51,351.33 425.67,350.52C427.68,349.11 427.81,349.20 428.35,352.27C428.65,354.05 429.21,359.21 429.58,363.75C429.95,368.29 430.62,372.00 431.07,372.00C431.52,372.00 433.35,369.25 435.14,365.89C436.93,362.52 440.28,357.84 442.58,355.48C444.87,353.11 448.18,350.44 449.93,349.54C451.68,348.63 455.37,347.62 458.14,347.30C461.01,346.96 463.40,346.11 463.70,345.33C463.99,344.58 463.69,342.67 463.04,341.10C462.39,339.52 459.97,336.88 457.68,335.23C455.38,333.58 448.72,329.77 442.87,326.76C437.02,323.75 430.72,320.15 428.87,318.77C427.02,317.38 424.38,315.66 423.00,314.95C421.62,314.23 416.90,312.34 412.50,310.75C408.10,309.15 403.38,307.63 402.00,307.35C400.12,306.98 398.76,307.63 396.54,309.95C393.57,313.05 393.57,313.05 396.79,319.38C398.55,322.86 400.00,327.09 400.00,328.78C400.00,330.96 398.93,332.97 396.33,335.68C392.66,339.50 392.66,339.50 391.80,335.52C391.32,333.33 390.59,331.19 390.18,330.78C389.76,330.36 386.97,332.38 383.96,335.26C378.50,340.50 378.50,340.50 378.19,337.35C378.03,335.62 378.59,332.53 379.44,330.48C380.30,328.43 381.00,326.37 381.00,325.91C381.00,325.44 380.21,325.34 379.25,325.69C378.29,326.03 375.56,327.87 373.20,329.77C370.83,331.67 368.62,332.96 368.30,332.63C367.97,332.31 369.23,328.99 371.10,325.27C372.97,321.55 374.65,318.16 374.83,317.75C375.02,317.34 374.75,317.00 374.24,317.00C373.73,317.00 369.59,319.69 365.05,322.97C360.50,326.25 355.90,329.22 354.82,329.56C353.73,329.90 352.64,329.97 352.38,329.71C352.12,329.45 352.91,327.17 354.14,324.64C355.37,322.11 356.06,319.73 355.67,319.34C355.29,318.95 352.84,320.16 350.23,322.03C347.63,323.89 342.26,327.57 338.31,330.21C332.37,334.16 330.32,335.00 326.59,335.00C324.11,335.00 319.47,335.96 316.29,337.13C313.10,338.31 309.92,339.73 309.20,340.30C308.49,340.86 308.04,342.22 308.20,343.30C308.42,344.77 309.86,345.63 313.75,346.62C316.64,347.36 320.72,348.84 322.83,349.91C324.94,350.99 329.22,354.63 332.34,358.00C335.76,361.69 338.17,363.61 338.42,362.81C338.64,362.09 339.31,359.97 339.91,358.10C340.51,356.23 341.00,353.64 341.00,352.35C341.00,351.06 341.53,350.00 342.17,350.00C342.82,350.00 344.10,349.31 345.03,348.47C346.30,347.33 347.35,347.18 349.24,347.90C351.05,348.59 351.94,349.87 352.43,352.48C352.80,354.47 353.74,356.35 354.52,356.65C355.29,356.94 357.29,356.21 358.96,355.03C361.70,353.08 362.00,353.04 362.00,354.62C362.00,355.58 361.05,358.33 359.89,360.73C358.73,363.13 356.25,366.31 354.39,367.80C351.12,370.41 351.00,370.74 351.00,377.50C351.00,381.35 351.73,388.48 352.62,393.34C354.11,401.48 354.11,402.81 352.62,410.34C351.73,414.83 351.00,420.02 351.00,421.87C351.00,424.76 351.22,425.06 352.50,424.00C353.66,423.03 354.00,423.03 354.00,423.97C354.00,424.64 353.28,427.66 352.41,430.67C351.53,433.68 351.04,436.38 351.32,436.66C351.60,436.93 352.74,436.67 353.85,436.08C355.24,435.34 356.08,435.32 356.52,436.03C356.87,436.60 355.83,439.86 354.21,443.28C352.60,446.70 349.82,451.29 348.06,453.49C345.65,456.47 344.98,458.14 345.37,460.12C345.79,462.20 344.61,464.67 339.87,471.61C336.55,476.47 330.61,483.84 326.67,487.98C322.73,492.13 318.22,497.91 316.65,500.83C315.09,503.74 313.71,507.89 313.60,510.03C313.49,512.18 313.09,514.25 312.70,514.63C312.32,515.02 312.01,516.05 312.03,516.92C312.05,517.86 316.49,521.08 323.03,524.90C329.06,528.43 334.00,531.63 334.00,532.03C334.00,532.43 332.76,533.24 331.25,533.84C329.74,534.43 326.70,535.22 324.50,535.59C322.30,535.96 319.15,536.99 317.50,537.87C314.50,539.47 314.50,539.47 320.00,540.06C323.02,540.39 326.85,541.20 328.50,541.87C330.15,542.54 333.86,544.26 336.75,545.70C339.64,547.15 342.00,548.64 342.00,549.03C342.00,549.42 340.15,549.99 337.88,550.29C335.61,550.59 333.31,551.29 332.76,551.84C332.11,552.49 332.84,553.38 334.94,554.47C336.68,555.37 340.33,556.37 343.05,556.69C347.69,557.24 348.00,557.46 348.00,560.14C348.00,562.15 348.50,563.00 349.68,563.00C350.61,563.00 354.06,562.24 357.35,561.32C361.63,560.12 364.55,558.48 367.59,555.57C369.92,553.33 372.15,550.26 372.53,548.75C372.91,547.24 372.96,544.98 372.65,543.74C372.31,542.40 369.45,539.75 365.60,537.22C362.04,534.87 356.82,530.38 354.00,527.23C351.19,524.08 347.60,519.25 346.02,516.50C344.45,513.75 342.45,508.74 341.58,505.36C340.71,501.98 340.00,496.56 340.00,493.32C340.00,488.21 340.40,486.96 342.99,483.96C345.98,480.50 345.98,480.50 345.34,484.86C344.71,489.23 344.71,489.23 349.99,488.50C355.28,487.77 355.28,487.77 352.04,493.42C350.27,496.53 349.07,499.73 349.37,500.53C349.68,501.34 353.35,504.22 357.51,506.94C361.68,509.66 367.65,512.85 370.79,514.04C373.93,515.22 377.93,516.42 379.69,516.71C381.91,517.08 383.93,516.59 386.35,515.09C388.26,513.91 393.90,510.95 398.89,508.50C403.88,506.05 408.66,504.32 409.51,504.64C410.57,505.05 410.85,505.91 410.39,507.37C410.02,508.54 408.60,510.96 407.24,512.75C405.88,514.54 405.15,516.00 405.63,516.00C406.11,515.99 407.93,515.12 409.69,514.05C411.44,512.98 413.40,511.12 414.05,509.91C414.96,508.21 414.94,506.84 413.94,503.82C412.68,500.01 412.73,499.86 416.22,496.22C418.18,494.17 420.53,491.01 421.45,489.19C422.37,487.36 423.62,486.04 424.24,486.25C424.85,486.45 425.80,487.31 426.33,488.16C427.02,489.26 426.35,492.67 424.04,499.87C422.25,505.46 419.11,512.61 417.07,515.77C415.03,518.92 410.47,524.14 406.93,527.36C403.39,530.58 398.14,534.56 395.25,536.21C392.36,537.85 389.09,540.34 388.00,541.73C386.90,543.13 386.00,545.56 386.00,547.15C386.00,548.73 386.95,552.05 388.12,554.53C389.28,557.00 391.50,559.93 393.05,561.04C394.60,562.14 397.36,563.71 399.18,564.53C401.42,565.54 405.01,565.94 410.21,565.76zM474.75,562.95C474.89,562.98 475.00,562.60 475.00,562.12C475.00,561.63 471.29,559.65 466.75,557.71C462.21,555.78 456.58,553.63 454.24,552.94C451.90,552.24 449.69,551.98 449.33,552.34C448.96,552.70 448.90,553.24 449.19,553.53C449.48,553.82 455.29,556.04 462.11,558.48C468.92,560.91 474.61,562.92 474.75,562.95zM282.50,536.57C283.60,536.27 288.06,535.13 292.42,534.02C296.77,532.90 300.56,531.77 300.84,531.50C301.11,531.22 300.47,531.00 299.41,531.00C298.36,531.00 294.49,531.86 290.82,532.91C287.15,533.96 283.33,535.33 282.33,535.96C280.62,537.02 280.63,537.06 282.50,536.57zM493.50,531.80C495.05,531.83 494.94,531.66 493.00,531.03C491.62,530.59 487.57,529.32 484.00,528.21C480.43,527.11 474.04,525.65 469.81,524.97C465.57,524.30 461.34,524.04 460.39,524.40C459.24,524.85 459.00,525.40 459.67,526.07C460.22,526.62 467.60,528.12 476.08,529.41C484.56,530.70 492.40,531.78 493.50,531.80zM330.42,520.70C329.36,520.81 326.88,520.29 324.91,519.55C322.93,518.82 319.85,517.46 318.06,516.53C315.01,514.95 314.92,514.77 316.66,513.46C317.67,512.69 319.46,512.05 320.63,512.03C321.80,512.01 323.26,512.61 323.87,513.35C324.49,514.09 326.80,515.51 329.02,516.51C331.24,517.51 332.90,518.82 332.70,519.41C332.50,520.01 331.48,520.59 330.42,520.70zM379.10,506.99C378.77,506.98 376.60,505.52 374.28,503.74C371.95,501.96 368.61,499.60 366.85,498.50C365.08,497.40 363.70,496.05 363.78,495.50C363.86,494.95 365.63,494.27 367.71,494.00C369.80,493.73 377.12,493.73 384.00,494.00C393.08,494.36 396.50,494.84 396.50,495.75C396.50,496.44 392.72,499.25 388.10,502.00C383.47,504.75 379.42,507.00 379.10,506.99zM454.83,475.00C455.83,475.00 458.68,473.66 461.15,472.02C463.63,470.38 466.42,468.19 467.37,467.15C468.31,466.11 469.96,462.84 471.04,459.89C472.37,456.24 472.79,453.40 472.35,451.01C471.99,449.08 470.41,443.70 468.85,439.07C467.28,434.43 465.04,429.61 463.87,428.36C462.48,426.88 461.94,425.35 462.30,423.94C462.80,422.04 462.56,421.86 460.18,422.43C458.71,422.78 455.58,423.33 453.24,423.66C450.00,424.12 447.18,423.60 441.45,421.51C434.21,418.87 433.84,418.84 431.96,420.54C430.44,421.91 430.00,423.62 430.00,428.15C430.00,431.38 430.45,434.00 431.00,434.00C431.55,434.00 432.04,435.91 432.10,438.25C432.15,440.59 432.52,443.62 432.92,445.00C433.45,446.84 434.24,447.43 435.92,447.25C438.09,447.00 438.16,447.21 437.50,452.00C436.93,456.12 437.08,457.00 438.34,457.00C439.26,457.00 439.99,458.09 440.18,459.74C440.39,461.54 441.19,462.61 442.49,462.86C443.59,463.07 446.40,465.30 448.74,467.81C451.08,470.33 453.00,472.97 453.00,473.69C453.00,474.41 453.82,475.00 454.83,475.00zM326.74,458.45C329.16,455.73 332.01,451.83 333.07,449.79C334.66,446.73 335.00,443.98 335.00,434.01C335.00,423.65 334.76,421.85 333.33,421.30C332.34,420.92 328.98,422.04 325.08,424.07C321.46,425.94 316.25,429.70 313.50,432.41C309.40,436.46 308.83,437.42 310.32,437.76C311.59,438.05 311.93,438.69 311.44,439.84C311.05,440.75 310.33,443.92 309.83,446.88C309.34,449.84 309.18,452.51 309.48,452.81C309.78,453.11 311.59,452.61 313.51,451.70C317.00,450.03 317.00,450.03 317.00,454.52C317.00,458.40 317.28,459.00 319.09,459.00C320.41,459.00 321.40,459.82 321.76,461.20C322.29,463.23 322.68,463.01 326.74,458.45zM444.81,412.86C446.63,412.94 450.09,412.50 452.50,411.90C454.91,411.29 457.66,409.92 458.62,408.86C460.34,406.96 460.18,406.94 448.94,407.22C438.06,407.49 437.48,407.61 437.19,409.67C436.96,411.27 437.49,411.96 439.19,412.29C440.46,412.53 442.99,412.79 444.81,412.86zM323.75,411.95C326.09,411.98 328.00,411.61 328.00,411.12C328.00,410.64 327.41,409.75 326.68,409.15C325.96,408.55 322.24,407.34 318.43,406.46C314.62,405.58 310.50,404.22 309.29,403.43C308.07,402.65 306.60,402.00 306.04,402.00C305.47,402.00 305.00,402.84 305.00,403.88C305.00,404.91 305.66,406.31 306.47,406.98C307.28,407.65 310.55,409.03 313.72,410.05C316.90,411.06 321.41,411.92 323.75,411.95zM334.33,409.72C335.16,409.44 335.50,404.40 335.50,392.41C335.50,378.10 335.23,375.00 333.72,372.25C332.75,370.46 331.51,369.00 330.97,369.00C330.39,369.00 330.00,373.96 330.01,381.25C330.01,387.99 330.48,396.43 331.05,400.00C331.61,403.57 332.32,407.31 332.62,408.31C332.92,409.30 333.69,409.93 334.33,409.72zM431.32,408.00C431.64,408.00 432.98,407.51 434.30,406.91C436.60,405.86 436.73,405.27 437.37,392.66C437.73,385.42 438.32,378.15 438.66,376.50C439.29,373.52 439.27,373.51 437.21,375.35C436.06,376.37 434.37,379.29 433.45,381.85C432.49,384.54 431.56,391.03 431.26,397.25C430.98,403.16 431.00,408.00 431.32,408.00zM462.25,402.76C462.94,402.53 463.65,400.86 463.82,399.03C464.00,397.21 463.82,394.55 463.41,393.11C462.72,390.65 462.64,390.72 461.90,394.50C461.47,396.70 461.09,399.55 461.06,400.83C461.02,402.27 461.48,403.01 462.25,402.76zM311.62,397.00C312.38,397.00 313.00,396.11 313.00,395.02C313.00,393.93 312.26,391.20 311.37,388.96C310.23,386.13 309.90,383.25 310.28,379.57C310.58,376.64 311.73,372.48 312.84,370.31C313.95,368.14 315.56,365.78 316.43,365.06C317.29,364.34 318.00,363.36 318.00,362.88C318.00,362.39 316.96,362.00 315.69,362.00C314.41,362.00 312.22,363.24 310.80,364.75C309.39,366.26 307.50,368.94 306.61,370.70C305.62,372.68 305.00,376.41 305.00,380.48C305.00,384.11 305.68,388.70 306.52,390.71C307.36,392.71 308.54,394.94 309.14,395.67C309.75,396.40 310.86,397.00 311.62,397.00zM452.50,390.96C453.60,390.98 455.99,390.08 457.81,388.97C459.63,387.86 461.77,385.41 462.56,383.51C463.35,381.61 463.99,378.59 463.98,376.78C463.97,374.98 463.14,371.70 462.14,369.50C461.14,367.30 459.68,364.97 458.90,364.33C458.13,363.69 456.26,362.85 454.75,362.47C452.67,361.95 451.86,362.20 451.35,363.52C450.91,364.66 451.41,365.81 452.80,366.88C453.97,367.77 455.61,370.17 456.46,372.22C457.31,374.26 458.00,377.94 458.00,380.39C458.00,382.83 457.71,385.60 457.35,386.53C456.99,387.46 455.31,388.83 453.60,389.57C451.30,390.58 451.01,390.93 452.50,390.96zM320.62,371.00C320.74,371.00 321.55,370.73 322.42,370.39C323.29,370.06 324.00,368.92 324.00,367.86C324.00,366.78 323.01,365.56 321.75,365.09C320.51,364.62 319.16,364.43 318.75,364.68C318.34,364.92 318.00,365.90 318.00,366.86C318.00,367.82 318.54,369.14 319.20,369.80C319.86,370.46 320.50,371.00 320.62,371.00zM333.17,309.00C333.97,309.00 335.95,307.62 337.56,305.93C340.50,302.86 340.50,302.86 340.42,285.68C340.34,269.75 340.13,267.88 337.57,260.00C336.05,255.32 333.41,249.03 331.70,246.00C330.00,242.97 325.94,236.45 322.68,231.50C319.42,226.55 315.91,220.55 314.88,218.17C313.85,215.78 313.00,213.41 313.00,212.88C313.00,212.33 313.88,212.40 315.09,213.05C316.23,213.66 317.37,213.97 317.60,213.73C317.84,213.49 317.18,210.64 316.14,207.40C315.09,204.15 313.05,198.42 311.59,194.67C308.95,187.83 308.95,187.83 311.98,188.49C314.91,189.14 315.00,189.05 315.00,185.53C315.00,183.53 314.27,178.67 313.37,174.73C312.47,170.78 310.88,165.55 309.83,163.10C308.78,160.65 305.92,155.69 303.47,152.08C301.02,148.46 295.45,141.68 291.10,137.00C286.75,132.32 282.89,128.79 282.54,129.14C282.18,129.49 283.94,133.83 286.45,138.79C288.95,143.75 291.00,148.30 291.00,148.90C291.00,149.51 290.75,150.00 290.44,150.00C290.14,150.00 287.10,147.75 283.70,144.99C280.29,142.24 277.37,140.39 277.20,140.89C277.04,141.39 278.70,145.77 280.89,150.63C283.08,155.48 284.72,159.61 284.52,159.81C284.33,160.00 283.26,159.67 282.15,159.08C281.03,158.48 279.88,158.38 279.59,158.86C279.29,159.34 279.91,162.82 280.96,166.61C282.02,170.40 284.06,176.20 285.51,179.50C286.96,182.80 290.17,189.47 292.64,194.33C295.11,199.18 300.52,208.53 304.64,215.10C308.77,221.67 314.11,231.19 316.51,236.27C318.91,241.35 322.73,252.03 324.99,260.00C327.61,269.23 329.31,277.59 329.68,283.00C330.00,287.68 330.85,292.94 331.56,294.71C332.39,296.75 332.65,299.94 332.29,303.46C331.83,307.90 332.01,309.00 333.17,309.00zM436.09,307.79C436.48,307.08 437.54,300.20 438.44,292.50C439.34,284.80 441.21,272.76 442.60,265.74C443.99,258.73 446.16,249.95 447.42,246.24C448.68,242.53 451.17,236.63 452.94,233.12C454.85,229.34 458.69,224.23 462.33,220.62C465.72,217.25 472.45,210.97 477.27,206.66C482.10,202.35 487.89,196.11 490.15,192.78C492.40,189.46 495.77,183.46 497.62,179.44C499.48,175.42 501.00,171.59 501.00,170.93C501.00,170.26 500.26,169.18 499.36,168.52C497.84,167.41 497.88,166.78 499.86,160.49C501.04,156.74 502.00,153.29 502.00,152.83C502.00,152.37 501.32,152.00 500.50,152.00C499.43,152.00 499.01,150.93 499.04,148.25C499.06,146.19 500.14,138.88 501.43,132.00C502.72,125.12 503.63,119.34 503.45,119.14C503.27,118.95 501.80,120.30 500.19,122.14C498.58,123.99 495.98,127.08 494.40,129.00C492.83,130.93 487.55,136.78 482.67,142.00C477.79,147.22 471.80,154.28 469.37,157.68C466.93,161.07 463.15,168.12 460.96,173.34C458.78,178.56 457.00,183.54 457.00,184.42C457.00,185.29 457.32,186.00 457.71,186.00C458.10,186.00 460.12,184.33 462.21,182.30C464.29,180.26 466.00,179.17 466.00,179.87C466.00,180.57 464.85,184.57 463.44,188.76C462.04,192.95 459.30,199.22 457.36,202.69C455.42,206.16 454.20,209.00 454.66,208.99C455.12,208.99 460.17,205.82 465.88,201.95C471.59,198.09 476.43,195.09 476.64,195.30C476.84,195.51 475.58,197.66 473.84,200.09C472.09,202.52 465.97,209.15 460.25,214.84C454.52,220.53 447.80,228.34 445.31,232.19C442.82,236.03 439.04,242.90 436.92,247.44C434.79,251.98 432.37,258.57 431.54,262.09C430.57,266.22 430.05,273.31 430.07,282.00C430.10,289.43 430.47,297.64 430.90,300.25C431.33,302.86 432.51,305.91 433.53,307.03C434.93,308.58 435.55,308.76 436.09,307.79zM354.09,237.00C354.52,237.00 355.09,236.21 355.37,235.25C355.65,234.29 356.86,226.97 358.06,219.00C359.81,207.46 360.12,202.15 359.63,193.00C359.29,186.68 357.88,176.10 356.51,169.50C355.13,162.90 352.79,153.68 351.31,149.00C349.83,144.32 346.06,135.50 342.94,129.39C339.82,123.29 332.42,110.69 326.51,101.39C320.59,92.10 311.02,77.42 305.24,68.76C299.05,59.48 291.79,50.03 287.57,45.76C283.64,41.77 278.07,37.23 275.21,35.69C271.79,33.84 268.88,32.98 266.75,33.19C263.50,33.50 263.50,33.50 269.50,37.19C272.80,39.22 278.25,43.72 281.61,47.19C284.96,50.66 289.31,56.20 291.27,59.50C293.23,62.80 298.27,72.47 302.47,81.00C306.68,89.53 311.27,99.20 312.67,102.50C314.07,105.80 317.93,113.21 321.24,118.97C324.55,124.73 329.16,134.18 331.48,139.97C333.81,145.76 337.57,156.57 339.85,164.00C342.12,171.43 344.66,181.55 345.49,186.50C346.32,191.45 347.89,203.67 348.97,213.65C350.06,223.63 351.48,232.97 352.14,234.40C352.79,235.83 353.67,237.00 354.09,237.00zM460.83,135.00C461.37,135.00 463.76,133.01 466.15,130.59C468.54,128.16 472.70,122.53 475.40,118.07C478.09,113.61 480.06,109.72 479.76,109.43C479.47,109.14 476.20,112.27 472.49,116.40C468.79,120.52 464.75,125.39 463.52,127.20C462.29,129.02 460.96,131.51 460.57,132.75C460.17,134.02 460.29,135.00 460.83,135.00zM486.53,61.00C486.90,61.00 491.09,57.35 495.85,52.89C500.61,48.43 507.32,43.16 510.76,41.17C514.20,39.19 516.87,37.10 516.68,36.53C516.50,35.96 514.90,35.36 513.13,35.18C511.02,34.98 508.39,35.75 505.54,37.42C503.14,38.83 498.95,42.48 496.22,45.54C493.49,48.61 490.05,53.33 488.57,56.05C487.09,58.77 486.17,61.00 486.53,61.00z" />

</svg>