<?xml version="1.0" encoding="UTF-8" standalone="no"?>
<svg 
  version="1.1" 
  xmlns="http://www.w3.org/2000/svg" 
  xmlns:xlink="http://www.w3.org/1999/xlink" 
  xmlns:svg="http://www.w3.org/2000/svg"
  xmlns:rdf="http://www.w3.org/1999/02/22-rdf-syntax-ns#"
  xmlns:cc="http://creativecommons.org/ns#"
  xmlns:dc="http://purl.org/dc/elements/1.1/"
  viewBox="0 0 768 768"
  width="768"
  height="768"
>
<style>svg {background-color: white; }</style>"
<metadata id="metadata1">
Created by https://svgstud.io and licensed under CC-BY-SA 4.0 license. Please attribute https://svgstud.io
</metadata>
<metadata id="prompt">
a side profile of a hare that is jumping, minimal, broad strokes
</metadata>
<metadata id="version">
7
</metadata>
<metadata id="metadata2">
<rdf:RDF>
<cc:Work
    rdf:about="">
    <cc:license
    rdf:resource="http://creativecommons.org/licenses/by-sa/4.0/" />
    <dc:creator>
        <cc:Agent>
            <dc:title>https://svgstud.io</dc:title>
        </cc:Agent>
    </dc:creator>
</cc:Work>
<cc:License
    rdf:about="http://creativecommons.org/licenses/by-sa/4.0/">
    <cc:permits
    rdf:resource="http://creativecommons.org/ns#Reproduction" />
    <cc:permits
    rdf:resource="http://creativecommons.org/ns#Distribution" />
    <cc:requires
    rdf:resource="http://creativecommons.org/ns#Notice" />
    <cc:requires
    rdf:resource="http://creativecommons.org/ns#Attribution" />
    <cc:permits
    rdf:resource="http://creativecommons.org/ns#DerivativeWorks" />
    <cc:requires
    rdf:resource="http://creativecommons.org/ns#ShareAlike" />
</cc:License>
</rdf:RDF>
</metadata>
<metadata id="uid">
c8ef50ee603e57da2879a0e79c3956c98b671e18cfb917da7c52248784e7dfe1
</metadata>
<path stroke="none" fill="black" fill-rule="evenodd" d="M332.50,654.35C295.10,654.58 255.72,654.42 245.00,654.00C234.28,653.59 224.72,652.92 223.76,652.52C222.80,652.12 222.26,651.39 222.56,650.90C222.87,650.40 221.18,649.97 218.81,649.93C216.44,649.89 213.60,649.49 212.50,649.04C210.63,648.28 210.66,648.19 213.00,647.68C214.38,647.37 223.38,646.64 233.00,646.05C242.62,645.46 269.85,644.99 293.50,644.99C317.15,645.00 350.52,645.68 367.66,646.51C384.79,647.34 402.57,648.68 407.16,649.49C411.75,650.30 415.84,650.97 416.25,650.98C416.66,650.99 417.00,651.41 417.00,651.91C417.00,652.41 413.29,653.07 408.75,653.39C404.21,653.70 369.90,654.13 332.50,654.35zM197.62,650.00C194.04,650.00 190.84,649.55 190.50,649.00C190.11,648.37 192.30,648.00 196.38,648.00C199.96,648.00 203.16,648.45 203.50,649.00C203.89,649.63 201.70,650.00 197.62,650.00zM126.55,640.86C125.42,640.79 123.47,640.53 122.21,640.29C120.95,640.05 118.43,638.36 116.61,636.54C114.60,634.53 112.84,631.43 112.15,628.67C111.52,626.16 111.00,621.28 111.00,617.81C111.01,612.18 111.62,610.26 116.63,600.00C119.72,593.67 123.95,583.33 126.03,577.00C128.10,570.67 130.98,560.22 132.42,553.77C133.87,547.32 135.73,536.75 136.57,530.27C137.41,523.80 138.58,516.04 139.17,513.03C139.96,509.00 141.13,506.67 143.61,504.19C146.80,501.00 147.29,500.84 152.74,501.24C155.91,501.47 161.76,502.28 165.74,503.03C172.97,504.40 172.97,504.40 175.96,501.54C177.61,499.96 179.45,497.17 180.05,495.33C181.01,492.44 180.63,490.24 177.19,478.75C175.00,471.46 172.67,462.07 171.99,457.87C171.32,453.67 170.94,445.57 171.15,439.86C171.47,431.07 171.95,428.63 174.24,423.99C175.72,420.97 178.82,416.48 181.11,414.00C184.76,410.06 185.35,409.73 185.95,411.38C186.32,412.42 185.79,417.09 184.78,421.77C183.76,426.44 183.19,430.52 183.50,430.83C183.81,431.14 187.76,427.76 192.28,423.32C196.80,418.87 204.43,412.28 209.23,408.65C214.04,405.03 219.32,401.37 220.98,400.51C222.79,399.57 224.00,399.37 224.00,400.01C224.00,400.59 222.91,403.19 221.58,405.78C220.25,408.38 216.95,413.09 214.25,416.25C211.55,419.41 207.28,425.26 204.76,429.25C202.23,433.24 199.83,437.81 199.43,439.41C198.82,441.87 198.96,442.23 200.35,441.70C201.50,441.25 202.00,441.60 202.00,442.85C202.00,443.83 201.52,447.22 200.94,450.38C200.35,453.54 200.05,456.64 200.25,457.26C200.46,457.88 202.10,456.27 203.89,453.66C205.68,451.06 209.90,446.25 213.28,442.97C216.65,439.69 219.77,437.00 220.21,437.00C220.64,437.00 221.00,438.09 221.00,439.42C221.00,440.75 220.17,443.78 219.15,446.17C218.13,448.55 216.70,452.85 215.97,455.73C215.23,458.61 214.93,461.27 215.30,461.64C215.67,462.01 218.45,459.97 221.48,457.11C224.50,454.25 228.61,451.23 230.60,450.39C232.59,449.56 234.46,449.12 234.75,449.42C235.05,449.71 233.88,453.10 232.16,456.95C230.44,460.80 228.75,465.87 228.40,468.22C227.76,472.50 227.76,472.50 232.13,466.36C234.53,462.98 241.45,454.73 247.50,448.03C253.55,441.32 260.15,433.25 262.16,430.09C264.18,426.93 266.54,422.65 267.41,420.57C268.82,417.18 268.83,416.85 267.43,417.39C266.58,417.71 263.10,419.93 259.69,422.32C256.29,424.71 251.36,427.88 248.75,429.37C245.32,431.33 244.00,431.70 244.00,430.69C244.00,429.93 245.43,427.32 247.17,424.90C248.91,422.48 252.76,417.81 255.72,414.52C258.79,411.11 260.60,408.37 259.92,408.14C259.27,407.92 255.11,409.60 250.69,411.86C246.26,414.12 242.45,415.78 242.22,415.56C241.99,415.33 243.19,413.12 244.89,410.66C246.59,408.19 250.34,404.18 253.24,401.74C256.13,399.30 262.10,394.81 266.50,391.77C270.90,388.73 276.46,385.26 278.85,384.05C281.24,382.85 283.44,382.10 283.73,382.40C284.03,382.70 283.61,383.96 282.81,385.22C282.01,386.47 281.06,388.29 280.71,389.25C280.32,390.31 280.54,391.00 281.28,391.00C281.95,391.00 286.25,388.55 290.83,385.55C295.41,382.56 301.16,379.34 303.60,378.41C306.04,377.48 308.34,377.01 308.71,377.38C309.08,377.74 307.41,380.05 305.00,382.50C302.59,384.95 300.86,387.19 301.14,387.48C301.43,387.76 305.54,386.47 310.28,384.61C315.02,382.75 323.31,378.32 328.70,374.76C334.09,371.19 340.39,367.32 342.71,366.14C345.03,364.96 347.39,364.00 347.96,364.00C348.53,364.00 349.00,364.61 349.00,365.35C349.00,366.09 346.29,370.34 342.98,374.79C339.66,379.24 329.65,389.93 320.73,398.54C310.23,408.67 305.38,413.95 307.00,413.50C308.38,413.12 314.00,410.26 319.49,407.15C324.99,404.04 329.88,401.33 330.36,401.13C330.83,400.92 330.05,402.76 328.61,405.22C327.18,407.67 326.00,410.23 326.00,410.90C326.00,411.58 328.63,410.07 331.85,407.54C335.07,405.01 340.06,400.03 342.95,396.47C345.84,392.91 348.39,390.00 348.62,390.00C348.86,390.00 348.34,391.38 347.46,393.07C346.59,394.76 346.02,396.54 346.19,397.03C346.36,397.52 351.00,395.90 356.50,393.42C363.09,390.46 370.20,386.13 377.37,380.71C383.35,376.20 390.95,370.56 394.27,368.19C397.90,365.60 400.65,364.25 401.20,364.80C401.75,365.35 401.50,369.24 400.56,374.61C399.71,379.50 399.00,385.86 399.00,388.75C399.00,391.64 399.41,394.00 399.92,394.00C400.42,394.00 401.89,392.31 403.17,390.25C405.49,386.52 405.50,386.52 405.81,389.15C405.98,390.61 405.02,394.89 403.67,398.65C402.33,402.42 399.84,409.32 398.13,414.00C396.14,419.45 395.02,424.40 395.01,427.78C395.01,430.69 395.73,434.74 396.62,436.78C398.23,440.50 398.23,440.50 399.43,435.00C400.10,431.98 401.66,427.39 402.91,424.80C404.15,422.22 405.80,419.58 406.57,418.94C407.66,418.04 408.09,418.09 408.49,419.14C408.77,419.89 409.57,422.49 410.27,424.92C410.97,427.36 412.06,429.52 412.70,429.73C413.33,429.94 414.71,428.18 415.76,425.81C416.82,423.44 418.49,420.83 419.48,420.01C421.15,418.63 421.23,418.69 420.58,420.76C420.19,421.99 420.25,423.00 420.71,423.00C421.17,423.00 422.52,422.33 423.70,421.50C424.87,420.68 426.56,420.28 427.45,420.62C428.34,420.96 431.12,420.67 433.63,419.96C437.32,418.93 438.34,418.93 438.98,419.96C439.58,420.93 440.55,420.98 443.13,420.17C444.98,419.59 448.68,418.80 451.35,418.42C456.13,417.75 456.19,417.78 455.02,419.96C454.37,421.17 454.10,422.43 454.41,422.74C454.72,423.06 458.20,422.35 462.14,421.16C467.61,419.52 469.63,419.28 470.69,420.15C471.73,421.02 473.05,420.97 476.09,419.97C479.26,418.92 480.81,418.89 483.38,419.82C485.17,420.47 488.68,421.00 491.17,421.00C494.61,421.00 496.69,421.72 499.82,423.99C502.09,425.63 504.81,428.67 505.86,430.74C506.91,432.81 508.31,437.12 508.97,440.33C509.63,443.54 509.89,447.29 509.54,448.68C509.20,450.06 509.57,453.51 510.37,456.35C511.17,459.18 512.11,463.31 512.46,465.52C512.81,467.73 513.49,470.18 513.98,470.97C514.70,472.13 515.24,471.94 516.90,469.95C518.93,467.50 518.93,467.50 518.96,473.00C518.97,476.80 518.21,480.15 516.49,483.85C515.12,486.79 514.00,490.29 514.00,491.63C514.00,492.97 514.69,494.33 515.54,494.65C516.38,494.98 517.92,494.48 518.94,493.55C520.72,491.94 520.84,492.01 521.48,494.92C521.85,496.60 522.52,498.20 522.96,498.48C523.40,498.75 524.23,497.74 524.80,496.24C525.37,494.73 526.32,488.77 526.90,483.00C527.51,477.03 527.62,470.13 527.17,467.00C526.73,463.95 524.51,457.71 522.20,453.00C519.90,448.32 517.73,442.48 517.37,440.00C516.72,435.50 516.72,435.50 519.17,437.75C520.52,438.99 522.38,440.00 523.30,440.00C524.22,440.00 526.17,441.91 527.63,444.25C529.09,446.59 532.03,450.42 534.17,452.76C536.31,455.10 539.56,460.30 541.39,464.32C543.22,468.34 545.49,473.96 546.44,476.81C547.39,479.66 548.64,482.00 549.22,482.00C549.94,482.00 550.07,479.69 549.64,475.01C549.28,471.16 547.86,465.02 546.48,461.36C545.11,457.71 540.81,448.71 536.93,441.38C533.06,434.04 528.11,425.78 525.93,423.03C523.75,420.28 519.70,416.23 516.92,414.03C514.14,411.84 509.54,409.35 506.68,408.50C503.83,407.65 494.75,406.49 486.50,405.92C478.25,405.35 466.81,404.24 461.08,403.44C455.34,402.65 448.26,402.00 445.33,402.00C441.99,402.00 440.00,401.57 440.00,400.85C440.00,400.22 444.96,394.99 451.02,389.21C457.09,383.44 461.82,378.49 461.54,378.21C461.27,377.93 459.32,378.85 457.21,380.24C455.10,381.64 450.10,386.02 446.10,389.97C441.02,394.99 436.69,398.19 431.76,400.55C427.88,402.41 424.34,403.71 423.90,403.44C423.47,403.17 423.76,401.11 424.55,398.85C425.35,396.60 427.96,392.00 430.36,388.63C432.76,385.26 435.03,381.52 435.40,380.33C435.96,378.57 435.64,378.09 433.79,377.81C431.82,377.53 433.30,375.73 444.36,365.01C451.43,358.15 459.03,351.51 461.25,350.24C463.47,348.98 465.55,348.22 465.87,348.54C466.19,348.86 465.00,351.91 463.23,355.31C461.45,358.72 458.30,363.30 456.23,365.50C454.15,367.70 450.05,371.64 447.12,374.25C444.18,376.86 442.39,379.00 443.14,378.99C443.89,378.98 446.75,377.93 449.50,376.65C452.57,375.21 456.81,371.82 460.50,367.83C463.80,364.27 469.88,357.02 474.00,351.72C478.12,346.42 481.84,342.07 482.25,342.04C482.66,342.02 483.00,343.60 483.00,345.56C483.00,348.89 483.12,349.03 484.97,347.74C486.05,346.98 488.29,344.65 489.95,342.56C492.37,339.52 493.10,339.08 493.60,340.39C493.94,341.28 493.91,343.68 493.53,345.71C493.15,347.74 491.94,351.16 490.85,353.30C489.75,355.44 489.07,357.40 489.33,357.66C489.58,357.91 491.48,356.64 493.55,354.82C495.69,352.94 498.74,348.53 500.65,344.54C502.59,340.49 504.00,336.00 504.00,333.84C504.00,331.80 503.53,328.91 502.97,327.41C501.93,324.69 501.93,324.69 499.16,327.35C497.64,328.81 496.08,330.00 495.70,330.00C495.31,330.00 495.00,327.98 495.00,325.50C495.00,322.63 494.55,320.96 493.75,320.88C493.06,320.82 491.60,320.86 490.50,320.97C489.40,321.08 488.07,321.58 487.55,322.09C487.03,322.59 486.01,323.00 485.30,323.00C484.52,323.00 484.00,321.79 484.00,320.00C484.00,318.35 483.76,317.00 483.47,317.00C483.18,317.00 481.32,317.68 479.35,318.50C477.37,319.32 475.37,320.00 474.90,320.00C474.43,320.00 474.49,318.85 475.02,317.43C475.56,316.02 476.00,314.67 476.00,314.43C476.00,314.20 474.48,314.00 472.62,314.00C470.76,314.00 466.20,315.14 462.49,316.54C458.78,317.94 455.24,318.88 454.62,318.64C454.00,318.40 456.83,315.00 460.89,311.08C464.96,307.16 468.08,303.74 467.82,303.48C467.56,303.22 464.90,302.15 461.92,301.10C458.94,300.05 454.51,298.44 452.07,297.54C449.63,296.63 447.12,295.17 446.48,294.30C445.56,293.04 443.21,292.71 434.91,292.66C425.52,292.61 423.65,292.92 415.84,295.87C411.07,297.66 404.70,300.62 401.67,302.44C398.64,304.26 393.54,307.90 390.33,310.53C387.13,313.16 381.62,316.63 378.10,318.23C374.58,319.84 367.08,322.70 361.43,324.59C355.78,326.48 347.86,328.45 343.83,328.97C339.80,329.50 331.55,331.31 325.50,333.02C319.45,334.72 307.98,338.14 300.00,340.61C292.02,343.09 279.88,346.88 273.00,349.04C266.12,351.20 251.93,355.39 241.45,358.36C230.98,361.32 220.40,364.77 217.95,366.02C215.50,367.26 210.89,370.29 207.70,372.74C204.51,375.19 199.69,379.41 196.98,382.12C194.27,384.83 189.61,390.07 186.63,393.77C183.65,397.47 179.91,402.75 178.32,405.50C176.73,408.25 173.92,413.99 172.08,418.25C168.73,426.00 168.73,426.00 163.00,426.00C158.46,426.00 155.83,425.28 150.37,422.55C146.57,420.65 142.18,417.75 140.61,416.11C138.43,413.84 137.90,412.54 138.38,410.64C138.73,409.24 142.66,404.95 147.38,400.82C151.99,396.80 158.18,392.29 161.13,390.81C164.08,389.32 168.97,387.22 172.00,386.12C175.03,385.03 179.98,383.45 183.02,382.61C186.37,381.68 193.06,378.12 200.02,373.58C206.33,369.45 214.80,364.07 218.83,361.62C222.89,359.16 230.48,355.82 235.83,354.15C241.15,352.49 253.38,348.66 263.00,345.63C272.62,342.60 289.27,337.55 300.00,334.42C310.73,331.28 326.48,327.05 335.00,325.01C343.52,322.97 354.10,320.31 358.50,319.09C362.90,317.88 369.65,315.34 373.50,313.46C377.35,311.58 384.55,307.09 389.50,303.47C394.45,299.86 401.43,295.41 405.00,293.59C408.57,291.77 413.30,289.70 415.50,289.00C417.70,288.30 421.58,286.69 424.12,285.41C426.66,284.14 429.99,281.61 431.53,279.80C433.06,277.98 435.09,274.70 436.05,272.50C437.00,270.30 438.07,265.12 438.43,261.00C438.79,256.88 439.99,250.35 441.10,246.50C443.12,239.50 443.12,239.50 438.56,231.00C436.06,226.32 432.47,221.15 430.57,219.50C428.68,217.85 422.27,214.29 416.32,211.59C410.37,208.89 403.07,205.14 400.11,203.26C397.14,201.38 392.25,197.51 389.23,194.67C386.22,191.83 381.78,186.74 379.37,183.36C376.96,179.99 372.76,172.56 370.05,166.86C367.33,161.16 364.01,152.66 362.65,147.97C361.30,143.29 359.25,133.89 358.10,127.10C356.79,119.41 356.00,110.34 356.00,103.06C356.00,96.63 356.49,88.70 357.09,85.43C357.70,82.17 358.92,78.26 359.81,76.75C360.70,75.24 362.31,74.00 363.38,74.00C364.45,74.00 370.06,76.51 375.85,79.57C381.64,82.63 389.60,87.37 393.53,90.09C397.46,92.81 402.10,97.01 403.84,99.43C405.58,101.85 407.00,104.55 407.00,105.43C407.00,106.83 406.47,106.77 402.90,104.95C400.65,103.80 398.60,103.07 398.34,103.33C398.08,103.58 399.48,106.98 401.44,110.87C403.40,114.77 405.00,118.20 405.00,118.50C405.00,118.80 403.65,118.35 402.00,117.50C400.35,116.65 399.00,116.37 399.00,116.87C399.00,117.38 399.88,122.91 400.95,129.15C402.02,135.39 404.04,143.55 405.45,147.27C406.85,151.00 408.00,154.50 408.00,155.05C408.00,155.60 406.67,155.37 405.05,154.53C403.43,153.69 401.85,153.00 401.55,153.00C401.25,153.00 401.00,153.60 401.00,154.32C401.00,155.05 402.97,159.66 405.38,164.57C407.79,169.48 411.19,175.43 412.92,177.80C414.66,180.16 418.83,183.88 422.20,186.05C425.59,188.24 429.55,190.00 431.09,190.00C433.48,190.00 434.71,191.24 439.69,198.68C442.89,203.45 446.06,207.53 446.75,207.76C447.45,207.99 448.00,207.35 447.99,206.33C447.98,205.32 446.85,202.07 445.47,199.11C444.09,196.15 440.05,188.95 436.48,183.11C432.92,177.27 428.44,168.52 426.53,163.66C424.63,158.80 422.63,152.28 422.09,149.16C421.55,146.05 420.62,138.43 420.02,132.23C419.30,124.77 417.99,118.30 416.14,113.07C414.61,108.73 411.62,102.91 409.52,100.15C407.41,97.38 402.20,92.63 397.95,89.59C393.70,86.55 389.00,82.60 387.50,80.82C385.02,77.87 384.83,77.09 385.42,72.10C385.77,69.08 387.07,64.79 388.30,62.56C389.66,60.09 391.37,58.38 392.69,58.19C393.88,58.02 396.62,58.79 398.79,59.89C400.96,61.00 405.24,64.20 408.31,67.00C411.37,69.80 416.09,75.10 418.79,78.79C421.50,82.48 424.92,87.59 426.38,90.13C427.85,92.68 430.88,98.98 433.11,104.13C435.33,109.29 439.09,118.00 441.46,123.50C443.82,129.00 447.82,139.82 450.33,147.54C452.90,155.44 456.44,169.65 458.41,180.04C460.35,190.19 463.07,202.29 464.46,206.93C465.86,211.56 467.00,215.50 467.00,215.68C467.00,215.85 467.66,216.00 468.48,216.00C469.29,216.00 470.65,214.94 471.50,213.65C472.93,211.46 472.80,210.68 469.61,202.40C467.73,197.50 465.00,188.10 463.54,181.50C462.08,174.90 459.75,165.45 458.37,160.50C456.70,154.54 455.66,147.70 455.29,140.25C454.97,133.92 455.11,129.01 455.61,129.03C456.10,129.04 457.81,131.98 459.41,135.56C461.00,139.14 462.80,141.90 463.39,141.70C463.98,141.51 465.26,134.63 466.24,126.42C467.22,118.22 467.74,109.47 467.41,107.00C467.08,104.53 466.39,101.73 465.89,100.79C465.37,99.82 464.32,99.32 463.48,99.64C462.28,100.11 462.00,99.16 462.00,94.67C462.00,91.61 461.57,88.85 461.03,88.52C460.50,88.19 459.04,89.53 457.78,91.48C455.99,94.28 455.02,94.93 453.27,94.51C451.31,94.04 450.65,94.82 447.98,100.70C446.30,104.40 444.67,108.46 444.36,109.72C444.04,110.97 443.40,112.00 442.93,112.00C442.46,112.00 441.60,111.13 441.04,110.07C440.47,109.00 440.00,105.72 440.00,102.78C440.00,99.83 440.69,94.78 441.53,91.55C442.37,88.32 444.64,82.68 446.57,79.00C448.50,75.32 451.59,70.85 453.44,69.06C456.22,66.36 457.12,65.99 458.77,66.88C459.86,67.46 462.18,70.16 463.92,72.87C465.66,75.58 468.01,80.43 469.14,83.65C470.28,86.87 472.25,94.13 473.54,99.79C474.82,105.45 476.42,116.09 477.10,123.43C478.10,134.18 478.08,142.84 477.01,167.68C475.88,194.21 475.89,199.00 477.10,201.54C478.10,203.62 479.70,204.85 482.51,205.70C484.70,206.35 492.80,207.38 500.50,207.98C508.20,208.58 519.00,209.99 524.50,211.10C530.00,212.21 534.95,213.59 535.50,214.16C536.19,214.88 534.95,215.01 531.50,214.58C528.75,214.23 521.33,213.50 515.00,212.95C508.68,212.39 499.23,211.35 494.00,210.62C485.05,209.38 484.25,209.42 480.16,211.30C477.30,212.62 475.29,214.41 474.27,216.56C473.42,218.35 472.99,220.53 473.33,221.41C473.78,222.60 475.33,223.00 479.43,223.00C482.56,223.00 487.34,222.10 490.53,220.90C493.62,219.75 496.40,219.06 496.72,219.38C497.03,219.70 496.18,221.66 494.83,223.73C493.47,225.80 492.07,228.29 491.71,229.25C491.26,230.47 491.56,231.00 492.70,231.00C493.60,231.00 498.42,228.96 503.42,226.48C508.49,223.95 515.00,221.55 518.16,221.04C522.59,220.33 525.80,220.55 532.83,222.02C537.77,223.05 543.46,224.58 545.46,225.42C547.45,226.25 553.68,231.17 559.29,236.36C564.91,241.54 571.47,247.55 573.88,249.70C577.39,252.85 578.12,254.06 577.56,255.81C577.15,257.10 576.04,258.00 574.87,258.00C573.77,258.00 570.63,259.91 567.88,262.25C565.14,264.59 561.43,268.52 559.64,271.00C557.85,273.48 556.08,276.30 555.71,277.29C555.17,278.72 555.68,278.58 558.32,276.57C561.06,274.48 562.74,274.06 568.55,274.00C572.37,273.96 578.31,273.91 581.75,273.90C585.19,273.88 587.99,273.56 587.97,273.18C587.95,272.81 586.83,270.70 585.47,268.50C584.12,266.30 583.01,263.29 583.01,261.81C583.00,260.33 583.43,258.85 583.96,258.53C584.49,258.20 587.07,258.64 589.71,259.50C592.34,260.36 595.85,261.16 597.50,261.28C599.86,261.45 600.54,261.07 600.68,259.50C600.80,258.18 598.75,255.63 594.67,252.00C591.26,248.97 586.00,244.28 582.99,241.57C579.97,238.86 578.17,237.03 579.00,237.51C579.83,237.98 584.06,241.06 588.42,244.36C592.78,247.65 598.56,252.41 601.26,254.93C603.97,257.44 606.62,260.31 607.15,261.30C607.90,262.68 607.41,264.18 605.06,267.72C603.16,270.59 602.00,273.62 602.00,275.73C602.00,277.59 601.50,281.11 600.88,283.55C600.23,286.16 598.14,289.84 595.80,292.49C593.62,294.97 588.98,298.59 585.50,300.54C582.02,302.48 575.19,305.36 570.33,306.93C565.48,308.50 556.82,310.51 551.10,311.40C544.82,312.37 539.10,313.90 536.64,315.26C534.41,316.49 531.61,318.94 530.42,320.70C529.24,322.45 527.98,326.09 527.63,328.77C527.27,331.45 527.44,337.88 528.00,343.07C528.56,348.26 529.30,355.96 529.65,360.18C530.04,364.88 529.81,370.32 529.06,374.18C528.38,377.66 526.49,383.71 524.86,387.64C523.24,391.57 520.35,396.97 518.45,399.64C516.55,402.31 515.00,405.23 515.00,406.12C515.00,407.31 518.35,408.92 527.25,412.04C533.99,414.39 542.65,417.79 546.50,419.59C550.35,421.39 555.37,424.46 557.64,426.42C559.92,428.38 563.36,432.34 565.27,435.24C567.19,438.13 571.92,447.95 575.79,457.06C579.67,466.17 583.60,476.26 584.53,479.47C585.75,483.64 586.11,487.64 585.79,493.41C585.52,498.43 584.67,502.83 583.56,505.00C582.58,506.93 580.39,509.96 578.69,511.75C576.28,514.29 574.79,515.00 571.87,515.00C569.81,515.00 566.98,514.56 565.57,514.03C564.17,513.49 561.06,511.25 558.67,509.05C556.28,506.85 553.51,503.23 552.51,501.02C551.51,498.81 550.43,497.00 550.10,497.01C549.77,497.01 547.79,500.58 545.70,504.93C543.60,509.28 539.97,514.90 537.63,517.42C534.61,520.66 532.58,522.00 530.68,522.00C529.21,522.00 527.14,521.14 526.09,520.09C525.04,519.04 522.68,517.46 520.84,516.59C519.00,515.72 516.07,512.86 514.32,510.25C512.57,507.64 510.68,503.70 510.13,501.50C509.58,499.30 509.03,496.15 508.90,494.50C508.78,492.85 509.02,487.61 509.45,482.86C510.22,474.22 510.22,474.22 506.13,466.36C503.88,462.04 500.00,456.18 497.52,453.34C495.03,450.50 490.86,447.13 488.25,445.84C484.19,443.84 482.04,443.51 473.50,443.56C464.18,443.62 462.75,443.92 452.50,447.91C446.45,450.26 436.42,453.93 430.21,456.06C424.00,458.19 414.10,461.06 408.21,462.43C402.32,463.81 394.80,465.40 391.50,465.96C388.20,466.53 375.82,468.21 364.00,469.70C347.82,471.74 336.91,472.49 319.93,472.74C297.35,473.07 297.35,473.07 293.93,480.27C292.04,484.22 287.29,491.74 283.37,496.98C279.45,502.22 273.83,508.74 270.87,511.47C267.92,514.20 264.91,517.25 264.19,518.23C263.04,519.79 263.31,520.42 266.30,523.26C268.81,525.63 270.04,527.93 270.87,531.80C271.49,534.71 272.00,540.03 272.00,543.61C272.00,547.19 271.50,552.11 270.88,554.55C270.24,557.09 268.16,560.81 266.01,563.25C263.94,565.60 260.23,568.53 257.77,569.76C255.00,571.14 251.45,572.00 248.51,572.00C244.22,572.00 243.30,571.56 239.45,567.72C236.63,564.89 234.94,562.18 234.48,559.75C233.96,556.99 234.20,555.66 235.42,554.44C236.31,553.54 237.74,551.48 238.58,549.84C239.42,548.21 240.13,544.62 240.15,541.87C240.18,539.11 239.95,536.62 239.66,536.32C239.36,536.03 235.83,537.83 231.81,540.32C227.79,542.82 223.38,545.12 222.00,545.43C220.62,545.74 213.86,546.62 206.97,547.40C198.41,548.36 191.27,549.87 184.48,552.15C174.53,555.50 174.53,555.50 171.20,563.50C169.36,567.90 165.24,579.15 162.04,588.50C158.84,597.85 155.42,608.12 154.45,611.33C153.47,614.53 151.15,619.70 149.28,622.83C147.41,625.95 144.23,630.20 142.21,632.27C140.20,634.35 136.31,637.16 133.58,638.52C130.84,639.89 127.68,640.94 126.55,640.86zM118.38,612.00C119.14,612.00 121.89,609.41 124.50,606.25C127.11,603.09 129.73,599.46 130.32,598.18C131.12,596.43 131.07,595.66 130.11,595.07C129.15,594.47 130.09,592.03 133.89,585.30C136.67,580.36 140.50,572.99 142.39,568.91C144.29,564.84 146.15,560.38 146.53,559.00C147.05,557.11 145.92,557.93 141.86,562.39C138.91,565.63 134.55,571.03 132.18,574.39C129.80,577.75 127.21,582.02 126.43,583.87C125.64,585.73 125.00,587.98 124.99,588.87C124.98,589.77 123.19,594.33 121.00,599.00C118.81,603.67 117.02,608.51 117.01,609.75C117.00,611.00 117.61,612.00 118.38,612.00zM168.35,543.00C172.49,543.00 177.14,542.52 178.68,541.93C180.23,541.34 186.22,539.99 192.00,538.94C197.78,537.89 205.20,537.01 208.50,536.99C212.22,536.97 216.12,536.22 218.75,535.03C221.11,533.96 223.00,532.40 223.00,531.54C223.00,530.26 222.15,530.43 218.22,532.48C215.59,533.85 211.21,535.24 208.47,535.55C205.74,535.87 199.45,536.78 194.50,537.58C189.55,538.38 180.14,539.36 173.58,539.76C165.48,540.26 161.53,540.90 161.25,541.75C160.94,542.68 162.78,543.00 168.35,543.00zM150.43,529.62C153.88,526.06 155.90,523.18 155.56,522.30C155.23,521.43 153.98,520.99 152.35,521.18C150.89,521.36 148.88,522.62 147.88,524.00C146.88,525.38 145.76,528.52 145.40,531.00C144.75,535.50 144.75,535.50 150.43,529.62zM143.90,518.00C144.54,518.00 145.31,517.35 145.62,516.56C145.92,515.77 147.22,514.43 148.51,513.58C150.65,512.18 151.25,512.22 155.40,514.06C157.90,515.17 162.87,516.34 166.43,516.68C170.48,517.05 174.63,516.80 177.44,516.02C179.93,515.32 182.42,514.20 182.98,513.52C183.77,512.57 182.22,512.16 176.17,511.75C170.76,511.38 166.33,510.35 161.91,508.46C158.39,506.94 153.75,505.65 151.62,505.60C148.57,505.52 147.33,506.04 145.84,508.02C144.80,509.41 143.68,512.22 143.34,514.27C142.94,516.78 143.12,518.00 143.90,518.00zM565.11,477.99C565.45,477.99 566.00,475.66 566.34,472.79C566.80,468.88 566.55,466.97 565.35,465.13C564.46,463.78 561.94,460.72 559.74,458.34C557.54,455.95 555.12,454.00 554.35,454.00C553.35,454.00 553.14,454.77 553.58,456.75C553.92,458.26 555.17,461.38 556.35,463.67C557.53,465.97 559.85,470.12 561.50,472.91C563.15,475.69 564.77,477.98 565.11,477.99zM504.29,450.00C504.74,450.00 503.68,447.31 501.93,444.02C500.18,440.73 497.21,436.46 495.32,434.52C492.93,432.06 491.01,431.00 488.95,431.00C487.33,431.00 486.00,431.33 486.00,431.73C486.00,432.13 489.93,436.41 494.73,441.23C499.53,446.05 503.83,450.00 504.29,450.00zM559.85,438.91C560.05,438.34 559.92,435.94 559.56,433.57C559.19,431.08 557.99,428.40 556.71,427.20C555.49,426.06 553.23,424.65 551.68,424.07C550.14,423.48 547.66,423.01 546.18,423.02C544.71,423.02 542.84,423.45 542.03,423.96C540.79,424.75 540.94,425.31 543.03,427.54C544.39,429.00 548.65,432.39 552.50,435.07C556.35,437.76 559.66,439.49 559.85,438.91zM148.63,409.00C148.91,409.00 151.35,408.04 154.06,406.88C157.99,405.19 159.30,405.00 160.45,405.96C161.63,406.94 162.97,406.46 167.46,403.48C170.52,401.45 173.96,398.60 175.10,397.15C177.19,394.50 177.19,394.50 169.93,393.84C163.66,393.27 161.96,393.49 157.57,395.43C154.57,396.75 151.34,399.18 149.68,401.35C147.80,403.82 147.08,405.68 147.50,407.02C147.85,408.11 148.36,409.00 148.63,409.00zM252.18,389.00C251.87,389.00 253.14,387.87 255.01,386.49C256.89,385.11 259.99,383.55 261.90,383.02C263.82,382.49 265.54,382.21 265.72,382.39C265.91,382.58 264.89,383.50 263.46,384.43C262.03,385.37 259.03,386.78 256.80,387.57C254.57,388.36 252.49,389.00 252.18,389.00zM211.97,381.00C211.07,381.00 211.09,380.59 212.08,379.41C212.81,378.53 215.67,376.51 218.45,374.91C221.23,373.32 224.31,372.01 225.31,372.01C226.30,372.00 226.86,372.41 226.55,372.92C226.24,373.42 223.10,375.45 219.58,377.42C216.06,379.39 212.63,381.00 211.97,381.00zM422.44,372.00C422.06,372.00 422.03,370.24 422.37,368.09C422.71,365.94 423.86,362.15 424.93,359.67C425.99,357.19 428.58,353.25 430.68,350.92C434.50,346.68 434.50,346.68 435.01,350.59C435.30,352.74 435.98,354.42 436.53,354.33C437.09,354.23 438.77,353.85 440.27,353.47C442.01,353.03 443.00,353.18 443.00,353.89C443.00,354.50 441.38,356.79 439.40,358.98C437.41,361.18 432.95,365.00 429.47,367.49C425.99,369.97 422.83,372.00 422.44,372.00zM380.25,369.45C379.01,369.83 378.00,369.92 378.00,369.65C378.00,369.38 382.50,366.12 387.99,362.41C393.49,358.69 398.29,355.96 398.67,356.33C399.05,356.71 398.10,358.33 396.57,359.93C395.03,361.53 391.24,364.17 388.14,365.81C385.04,367.44 381.49,369.08 380.25,369.45zM291.19,354.97C287.72,354.99 285.13,354.61 285.42,354.12C285.72,353.64 287.97,352.74 290.43,352.12C292.88,351.51 297.27,351.04 300.19,351.08C305.50,351.16 305.50,351.16 301.50,353.05C298.92,354.27 295.26,354.96 291.19,354.97zM345.49,353.00C345.18,353.00 345.39,352.14 345.95,351.10C346.51,350.05 348.76,347.77 350.95,346.04C353.15,344.30 356.19,342.50 357.72,342.04C359.25,341.58 361.40,340.87 362.50,340.45C363.93,339.91 363.50,340.76 361.00,343.44C359.07,345.50 354.93,348.49 351.78,350.09C348.63,351.69 345.80,353.00 345.49,353.00zM380.47,352.01C379.11,352.53 378.00,352.69 378.00,352.38C378.00,352.07 378.99,350.39 380.21,348.65C381.42,346.92 384.01,343.52 385.96,341.11C387.90,338.70 392.85,334.55 396.95,331.89C401.05,329.24 404.52,327.19 404.67,327.34C404.82,327.49 404.47,329.35 403.88,331.48C403.18,334.00 400.82,337.34 397.11,341.05C393.97,344.19 389.50,347.72 387.17,348.91C384.84,350.10 381.82,351.50 380.47,352.01zM419.75,349.95C419.34,349.98 419.00,349.18 419.00,348.17C419.00,347.17 420.37,344.28 422.04,341.75C423.72,339.22 426.92,335.50 429.16,333.47C431.41,331.44 436.58,328.20 440.66,326.26C444.74,324.33 448.27,322.94 448.51,323.18C448.75,323.41 447.40,325.90 445.51,328.70C443.63,331.51 439.11,336.43 435.47,339.65C431.84,342.87 426.98,346.49 424.68,347.70C422.38,348.92 420.16,349.93 419.75,349.95zM403.75,346.32C402.58,346.73 402.00,346.43 402.00,345.42C402.00,344.58 402.67,342.61 403.48,341.03C404.30,339.45 406.89,336.60 409.23,334.70C411.58,332.80 414.96,330.51 416.75,329.60C418.99,328.46 420.00,328.32 420.00,329.13C420.00,329.79 418.21,332.69 416.01,335.60C413.82,338.50 410.56,341.96 408.76,343.29C406.97,344.62 404.71,345.98 403.75,346.32zM565.75,293.97C566.44,293.98 567.00,293.63 567.00,293.17C567.00,292.72 565.84,291.26 564.43,289.94C562.35,287.98 561.98,286.92 562.47,284.30C563.08,281.08 563.07,281.08 560.04,282.14C558.37,282.72 557.00,283.82 557.00,284.58C557.00,285.34 558.69,287.76 560.75,289.95C562.81,292.14 565.06,293.95 565.75,293.97zM466.37,290.00C467.46,290.00 469.17,289.26 470.17,288.35C471.18,287.43 472.00,286.08 472.00,285.35C472.00,284.40 470.52,284.00 467.00,284.00C462.85,284.00 462.00,284.31 462.00,285.80C462.00,286.79 462.54,288.14 463.20,288.80C463.86,289.46 465.29,290.00 466.37,290.00zM492.00,288.83C493.93,288.92 499.29,288.69 503.92,288.33C511.65,287.73 512.85,287.33 518.42,283.53C521.77,281.25 527.99,277.47 532.25,275.12C536.51,272.78 540.00,270.44 540.00,269.93C540.00,269.42 539.55,269.00 539.00,269.00C538.45,269.00 538.00,268.58 538.00,268.06C538.00,267.55 540.02,265.67 542.50,263.89C544.98,262.12 547.00,260.30 547.00,259.87C547.00,259.43 545.99,258.11 544.75,256.93C542.65,254.92 541.80,254.82 531.88,255.36C526.04,255.68 518.62,255.51 515.38,254.99C510.16,254.14 509.05,253.52 505.50,249.46C501.50,244.89 501.50,244.89 496.25,246.12C493.37,246.79 490.72,247.05 490.36,246.69C490.01,246.34 490.32,245.31 491.07,244.42C492.23,243.02 492.16,242.59 490.64,241.48C489.67,240.77 486.26,239.88 483.09,239.51C479.70,239.12 475.59,239.30 473.14,239.96C470.75,240.61 466.83,242.99 463.95,245.54C460.84,248.30 457.98,250.00 456.42,250.00C454.11,250.00 453.96,249.73 454.54,246.63C455.11,243.60 454.91,243.19 452.54,242.60C451.09,242.24 449.43,242.23 448.85,242.59C448.27,242.95 447.09,244.88 446.23,246.87C445.37,248.87 444.31,254.55 443.86,259.50C443.42,264.45 442.76,271.09 442.40,274.25C442.05,277.41 442.12,280.00 442.56,280.00C443.01,280.00 444.45,278.99 445.76,277.76C448.12,275.54 448.16,275.53 449.32,277.51C449.97,278.60 450.74,280.40 451.04,281.50C451.46,283.07 452.57,283.56 456.20,283.80C460.06,284.05 461.08,283.73 462.41,281.83C463.28,280.58 464.00,279.07 464.00,278.47C464.00,277.87 462.89,276.96 461.52,276.44C459.10,275.52 459.08,275.43 460.64,272.26C461.52,270.47 463.70,268.11 465.49,267.01C467.28,265.90 469.70,265.00 470.87,265.00C472.04,265.00 473.00,265.38 473.00,265.85C473.00,266.32 471.65,268.56 470.00,270.84C468.35,273.12 467.00,275.44 467.00,275.99C467.00,276.55 468.84,277.00 471.10,277.00C473.47,277.00 476.31,277.78 477.85,278.86C479.31,279.88 481.14,280.92 481.92,281.16C482.95,281.49 482.57,282.32 480.47,284.26C478.31,286.27 477.97,287.04 479.06,287.42C479.85,287.70 482.30,288.10 484.50,288.30C486.70,288.50 490.07,288.74 492.00,288.83zM507.00,282.22C505.62,282.47 503.38,282.52 502.00,282.32C500.62,282.12 497.97,281.71 496.11,281.41C493.20,280.94 492.92,280.66 494.11,279.46C494.88,278.69 499.45,276.69 504.26,275.03C510.14,272.99 514.88,272.01 518.75,272.03C524.50,272.05 524.50,272.05 521.00,274.97C519.08,276.57 515.70,278.75 513.50,279.82C511.30,280.89 508.38,281.97 507.00,282.22zM566.00,280.48C567.38,280.02 570.98,279.71 574.00,279.78C579.50,279.91 579.50,279.91 576.14,278.45C574.28,277.65 571.54,277.00 570.04,277.00C568.50,277.00 566.48,277.94 565.40,279.16C563.51,281.31 563.51,281.31 566.00,280.48zM456.47,258.00C456.21,258.00 456.00,257.30 456.00,256.45C456.00,255.60 457.10,253.80 458.45,252.45C459.80,251.10 461.60,250.00 462.45,250.00C463.30,250.00 464.00,250.40 464.00,250.90C464.00,251.39 462.41,253.19 460.47,254.90C458.52,256.60 456.72,258.00 456.47,258.00zM551.72,251.00C552.79,251.00 552.83,250.55 551.94,248.88C551.32,247.72 548.44,243.11 545.56,238.63C542.67,234.16 539.56,229.88 538.65,229.13C537.74,228.37 537.00,228.00 537.00,228.30C537.00,228.60 538.80,232.57 541.00,237.12C543.20,241.67 546.21,246.65 547.69,248.19C549.16,249.74 550.98,251.00 551.72,251.00zM519.00,243.91C520.38,243.88 522.40,243.47 523.50,243.00C525.30,242.22 525.24,242.13 522.88,242.07C521.45,242.03 519.12,241.09 517.71,239.98C516.30,238.88 514.63,236.40 513.99,234.48C513.36,232.57 512.72,231.00 512.57,231.00C512.42,231.00 510.88,231.49 509.15,232.10C507.42,232.70 506.00,233.77 506.00,234.46C506.00,235.16 506.88,236.85 507.96,238.22C509.04,239.59 511.40,241.44 513.21,242.33C515.02,243.22 517.62,243.93 519.00,243.91zM576.00,235.91C575.73,235.92 571.00,232.94 565.50,229.28C560.00,225.62 553.25,221.37 550.50,219.83C547.75,218.29 546.08,217.03 546.78,217.02C547.49,217.01 550.19,218.08 552.78,219.40C555.38,220.72 560.65,224.11 564.50,226.94C568.35,229.76 572.62,232.93 574.00,233.98C575.38,235.03 576.27,235.90 576.00,235.91zM446.68,227.66C446.96,227.38 445.51,223.95 443.45,220.04C441.17,215.69 437.77,211.18 434.70,208.42C431.59,205.62 424.65,201.46 416.43,197.45C405.44,192.09 402.50,190.17 399.25,186.24C397.09,183.63 393.52,178.80 391.30,175.50C389.09,172.20 386.09,167.15 384.64,164.29C383.19,161.42 380.88,155.63 379.50,151.41C378.13,147.19 377.00,143.05 377.00,142.20C377.00,141.02 377.59,141.21 379.50,143.00C381.23,144.62 382.00,144.91 382.00,143.92C382.00,143.14 379.09,137.70 375.54,131.83C371.99,125.96 367.66,117.07 365.92,112.08C364.18,107.09 362.29,103.00 361.72,103.00C361.05,103.00 360.92,106.50 361.34,113.25C361.69,118.89 362.84,127.37 363.91,132.09C364.97,136.81 367.03,144.24 368.49,148.59C369.94,152.94 373.12,160.70 375.54,165.83C377.97,170.97 381.55,177.35 383.51,180.02C385.47,182.68 391.22,188.21 396.28,192.30C403.02,197.73 409.14,201.49 419.01,206.24C429.45,211.27 433.42,213.75 436.51,217.18C438.70,219.61 441.77,223.08 443.33,224.89C444.89,226.69 446.39,227.94 446.68,227.66z" />

</svg>